# xmcd
#
# Track frame offsets:
#	150
#	1541
#	32045
#	57032
#	84252
#	85487
#	131759
#	162068
#	191963
#	208557
#	251294
#	284557
#	302106
#
# Disc length: 4434 seconds
#
# Revision: 1
# Processed by: cddbd v1.4PL0 Copyright (c) Steve Scherf et al.
# Submitted via: audiograbber 1.81.01
#
DISCID=a511500d
DTITLE=Tony Janflone Jr. - LIVE at the Blues Cafe
DYEAR=2000
DGENRE=Blues
TTITLE0=Intro
TTITLE1=Something's Got To Give
TTITLE2=Baby What You Want Me To Do
TTITLE3=Crocodile Tears
TTITLE4=Intro 2
TTITLE5=Wish You Didn't Have To Go
TTITLE6=Deliver The Goods
TTITLE7=The Wind Cries Mary
TTITLE8=Mustang Sally
TTITLE9=Hey Joe
TTITLE10=Gone With The Wind
TTITLE11=I've Got News For You
TTITLE12=Food Court Blues
EXTD=
EXTT0=
EXTT1=
EXTT2=
EXTT3=
EXTT4=
EXTT5=
EXTT6=
EXTT7=
EXTT8=
EXTT9=
EXTT10=
EXTT11=
EXTT12=
PLAYORDER=
